<svg viewBox="0 0 2000 1400" xmlns="http://www.w3.org/2000/svg"><mask id="b" x="0" y="0" width="2000" height="1400"><path fill="url(#a)" d="M0 0h2000v1400H0z"/></mask><path fill="#fff" d="M0 0h2000v1400H0z"/><g style="transform-origin:center center" stroke="#99e4ff" stroke-width="1.4" mask="url(#b)"><path fill="#99e4ffa5" d="M0 0h68.966v68.966H0z"/><path fill="none" d="M344.828 0h68.966v68.966h-68.966z"/><path fill="none" d="M413.793 0h68.966v68.966h-68.966z"/><path fill="#99e4ff5e" d="M482.759 0h68.966v68.966h-68.966z"/><path fill="none" d="M551.724 0h68.966v68.966h-68.966z"/><path fill="#99e4ff6f" d="M620.69 0h68.966v68.966H620.69z"/><path fill="none" d="M689.655 0h68.966v68.966h-68.966zM758.621 0h68.966v68.966h-68.966z"/><path fill="none" d="M827.586 0h68.966v68.966h-68.966zM1034.483 0h68.966v68.966h-68.966z"/><path fill="none" d="M1103.448 0h68.966v68.966h-68.966z"/><path fill="#99e4ffdf" d="M1172.414 0h68.966v68.966h-68.966z"/><path fill="none" d="M1241.379 0h68.966v68.966h-68.966zM1310.345 0h68.966v68.966h-68.966z"/><path fill="none" d="M1379.31 0h68.966v68.966h-68.966z"/><path fill="#99e4ff27" d="M1586.207 0h68.966v68.966h-68.966z"/><path fill="none" d="M1655.172 0h68.966v68.966h-68.966z"/><path fill="#99e4ff90" d="M1724.138 0h68.966v68.966h-68.966z"/><path fill="#99e4ff92" d="M1793.103 0h68.966v68.966h-68.966z"/><path fill="#99e4ff2f" d="M1862.069 0h68.966v68.966h-68.966z"/><path fill="none" d="M1931.034 0H2000v68.966h-68.966zM0 68.966h68.966v68.966H0zM68.966 68.966h68.966v68.966H68.966z"/><path fill="#99e4ffa4" d="M137.931 68.966h68.966v68.966h-68.966z"/><path fill="none" d="M275.862 68.966h68.966v68.966h-68.966z"/><path fill="none" d="M344.828 68.966h68.966v68.966h-68.966z"/><path fill="none" d="M413.793 68.966h68.966v68.966h-68.966zM482.759 68.966h68.966v68.966h-68.966zM689.655 68.966h68.966v68.966h-68.966zM758.621 68.966h68.966v68.966h-68.966z"/><path fill="#99e4ffd8" d="M827.586 68.966h68.966v68.966h-68.966z"/><path fill="#99e4ff8d" d="M896.552 68.966h68.966v68.966h-68.966z"/><path fill="none" d="M1034.483 68.966h68.966v68.966h-68.966z"/><path fill="none" d="M1103.448 68.966h68.966v68.966h-68.966zM1172.414 68.966h68.966v68.966h-68.966z"/><path fill="none" d="M1241.379 68.966h68.966v68.966h-68.966zM1310.345 68.966h68.966v68.966h-68.966z"/><path fill="none" d="M1379.31 68.966h68.966v68.966h-68.966z"/><path fill="#99e4ff25" d="M1448.276 68.966h68.966v68.966h-68.966z"/><path fill="none" d="M1517.241 68.966h68.966v68.966h-68.966zM1586.207 68.966h68.966v68.966h-68.966z"/><path fill="none" d="M1655.172 68.966h68.966v68.966h-68.966z"/><path fill="#99e4ff50" d="M1793.103 68.966h68.966v68.966h-68.966z"/><path fill="none" d="M1862.069 68.966h68.966v68.966h-68.966z"/><path fill="none" d="M1931.034 68.966H2000v68.966h-68.966z"/><path fill="#99e4ffb5" d="M0 137.931h68.966v68.966H0z"/><path fill="#99e4ff9b" d="M68.966 137.931h68.966v68.966H68.966z"/><path fill="none" d="M137.931 137.931h68.966v68.966h-68.966zM206.897 137.931h68.966v68.966h-68.966z"/><path fill="none" d="M275.862 137.931h68.966v68.966h-68.966z"/><path fill="#99e4ff51" d="M344.828 137.931h68.966v68.966h-68.966z"/><path fill="none" d="M413.793 137.931h68.966v68.966h-68.966zM551.724 137.931h68.966v68.966h-68.966zM689.655 137.931h68.966v68.966h-68.966zM758.621 137.931h68.966v68.966h-68.966zM896.552 137.931h68.966v68.966h-68.966z"/><path fill="#99e4ffd5" d="M965.517 137.931h68.966v68.966h-68.966z"/><path fill="none" d="M1310.345 137.931h68.966v68.966h-68.966z"/><path fill="#99e4ff24" d="M1379.31 137.931h68.966v68.966h-68.966z"/><path fill="none" d="M1448.276 137.931h68.966v68.966h-68.966z"/><path fill="none" d="M1517.241 137.931h68.966v68.966h-68.966zM1586.207 137.931h68.966v68.966h-68.966zM1862.069 137.931h68.966v68.966h-68.966z"/><path fill="none" d="M1931.034 137.931H2000v68.966h-68.966z"/><path fill="#99e4ff09" d="M0 206.897h68.966v68.966H0z"/><path fill="#99e4ffc7" d="M68.966 206.897h68.966v68.966H68.966z"/><path fill="#99e4ff0a" d="M137.931 206.897h68.966v68.966h-68.966z"/><path fill="none" d="M206.897 206.897h68.966v68.966h-68.966zM344.828 206.897h68.966v68.966h-68.966z"/><path fill="none" d="M413.793 206.897h68.966v68.966h-68.966zM551.724 206.897h68.966v68.966h-68.966zM620.69 206.897h68.966v68.966H620.69zM758.621 206.897h68.966v68.966h-68.966z"/><path fill="none" d="M827.586 206.897h68.966v68.966h-68.966zM896.552 206.897h68.966v68.966h-68.966z"/><path fill="none" d="M965.517 206.897h68.966v68.966h-68.966z"/><path fill="#99e4ff42" d="M1172.414 206.897h68.966v68.966h-68.966z"/><path fill="none" d="M1310.345 206.897h68.966v68.966h-68.966z"/><path fill="#99e4ff63" d="M1448.276 206.897h68.966v68.966h-68.966z"/><path fill="#99e4ff10" d="M1517.241 206.897h68.966v68.966h-68.966z"/><path fill="none" d="M1586.207 206.897h68.966v68.966h-68.966z"/><path fill="#99e4ff07" d="M1655.172 206.897h68.966v68.966h-68.966z"/><path fill="none" d="M1724.138 206.897h68.966v68.966h-68.966z"/><path fill="#99e4ff8e" d="M1862.069 206.897h68.966v68.966h-68.966z"/><path fill="#99e4ff03" d="M1931.034 206.897H2000v68.966h-68.966z"/><path fill="none" d="M0 275.862h68.966v68.966H0z"/><path fill="#99e4ff87" d="M68.966 275.862h68.966v68.966H68.966z"/><path fill="#99e4ff4a" d="M137.931 275.862h68.966v68.966h-68.966z"/><path fill="#99e4ffa0" d="M206.897 275.862h68.966v68.966h-68.966z"/><path fill="none" d="M275.862 275.862h68.966v68.966h-68.966z"/><path fill="none" d="M344.828 275.862h68.966v68.966h-68.966z"/><path fill="#99e4ff76" d="M413.793 275.862h68.966v68.966h-68.966z"/><path fill="none" d="M689.655 275.862h68.966v68.966h-68.966zM758.621 275.862h68.966v68.966h-68.966z"/><path fill="none" d="M827.586 275.862h68.966v68.966h-68.966z"/><path fill="#99e4ff38" d="M896.552 275.862h68.966v68.966h-68.966z"/><path fill="#99e4ff52" d="M1310.345 275.862h68.966v68.966h-68.966z"/><path fill="none" d="M1379.31 275.862h68.966v68.966h-68.966zM1448.276 275.862h68.966v68.966h-68.966z"/><path fill="none" d="M1517.241 275.862h68.966v68.966h-68.966zM1655.172 275.862h68.966v68.966h-68.966zM1724.138 275.862h68.966v68.966h-68.966z"/><path fill="#99e4ff63" d="M1793.103 275.862h68.966v68.966h-68.966z"/><path fill="none" d="M1862.069 275.862h68.966v68.966h-68.966zM0 344.828h68.966v68.966H0zM137.931 344.828h68.966v68.966h-68.966zM275.862 344.828h68.966v68.966h-68.966zM413.793 344.828h68.966v68.966h-68.966zM482.759 344.828h68.966v68.966h-68.966z"/><path fill="none" d="M551.724 344.828h68.966v68.966h-68.966z"/><path fill="#99e4ff90" d="M689.655 344.828h68.966v68.966h-68.966z"/><path fill="none" d="M758.621 344.828h68.966v68.966h-68.966z"/><path fill="none" d="M827.586 344.828h68.966v68.966h-68.966zM896.552 344.828h68.966v68.966h-68.966zM1034.483 344.828h68.966v68.966h-68.966zM1241.379 344.828h68.966v68.966h-68.966zM1310.345 344.828h68.966v68.966h-68.966z"/><path fill="none" d="M1379.31 344.828h68.966v68.966h-68.966z"/><path fill="#99e4ffbb" d="M1448.276 344.828h68.966v68.966h-68.966z"/><path fill="none" d="M1586.207 344.828h68.966v68.966h-68.966z"/><path fill="none" d="M1655.172 344.828h68.966v68.966h-68.966zM1724.138 344.828h68.966v68.966h-68.966z"/><path fill="none" d="M1793.103 344.828h68.966v68.966h-68.966zM1931.034 344.828H2000v68.966h-68.966zM0 413.793h68.966v68.966H0zM68.966 413.793h68.966v68.966H68.966z"/><path fill="#99e4ff30" d="M137.931 413.793h68.966v68.966h-68.966z"/><path fill="none" d="M206.897 413.793h68.966v68.966h-68.966z"/><path fill="#99e4ff33" d="M344.828 413.793h68.966v68.966h-68.966z"/><path fill="none" d="M413.793 413.793h68.966v68.966h-68.966zM482.759 413.793h68.966v68.966h-68.966z"/><path fill="#99e4ff41" d="M551.724 413.793h68.966v68.966h-68.966z"/><path fill="none" d="M620.69 413.793h68.966v68.966H620.69zM758.621 413.793h68.966v68.966h-68.966z"/><path fill="#99e4ff03" d="M827.586 413.793h68.966v68.966h-68.966z"/><path fill="none" d="M896.552 413.793h68.966v68.966h-68.966z"/><path fill="none" d="M965.517 413.793h68.966v68.966h-68.966z"/><path fill="#99e4ff46" d="M1034.483 413.793h68.966v68.966h-68.966z"/><path fill="#99e4ff5b" d="M1103.448 413.793h68.966v68.966h-68.966z"/><path fill="none" d="M1172.414 413.793h68.966v68.966h-68.966zM1379.31 413.793h68.966v68.966h-68.966zM1448.276 413.793h68.966v68.966h-68.966z"/><path fill="none" d="M1517.241 413.793h68.966v68.966h-68.966zM1586.207 413.793h68.966v68.966h-68.966zM1724.138 413.793h68.966v68.966h-68.966z"/><path fill="none" d="M1793.103 413.793h68.966v68.966h-68.966zM1862.069 413.793h68.966v68.966h-68.966zM0 482.759h68.966v68.966H0zM137.931 482.759h68.966v68.966h-68.966z"/><path fill="#99e4ff63" d="M206.897 482.759h68.966v68.966h-68.966z"/><path fill="none" d="M275.862 482.759h68.966v68.966h-68.966z"/><path fill="#99e4ff83" d="M344.828 482.759h68.966v68.966h-68.966z"/><path fill="none" d="M413.793 482.759h68.966v68.966h-68.966zM482.759 482.759h68.966v68.966h-68.966z"/><path fill="none" d="M551.724 482.759h68.966v68.966h-68.966zM620.69 482.759h68.966v68.966H620.69z"/><path fill="none" d="M689.655 482.759h68.966v68.966h-68.966zM758.621 482.759h68.966v68.966h-68.966zM1034.483 482.759h68.966v68.966h-68.966z"/><path fill="#99e4ff96" d="M1172.414 482.759h68.966v68.966h-68.966z"/><path fill="none" d="M1241.379 482.759h68.966v68.966h-68.966zM1310.345 482.759h68.966v68.966h-68.966z"/><path fill="none" d="M1379.31 482.759h68.966v68.966h-68.966z"/><path fill="#99e4fffd" d="M1448.276 482.759h68.966v68.966h-68.966z"/><path fill="none" d="M1586.207 482.759h68.966v68.966h-68.966zM1793.103 482.759h68.966v68.966h-68.966zM1931.034 482.759H2000v68.966h-68.966z"/><path fill="#99e4ff13" d="M206.897 551.724h68.966v68.966h-68.966z"/><path fill="none" d="M275.862 551.724h68.966v68.966h-68.966z"/><path fill="#99e4fffe" d="M344.828 551.724h68.966v68.966h-68.966z"/><path fill="none" d="M620.69 551.724h68.966v68.966H620.69z"/><path fill="none" d="M689.655 551.724h68.966v68.966h-68.966z"/><path fill="#99e4ff31" d="M827.586 551.724h68.966v68.966h-68.966z"/><path fill="#99e4ff59" d="M965.517 551.724h68.966v68.966h-68.966z"/><path fill="#99e4ff39" d="M1034.483 551.724h68.966v68.966h-68.966z"/><path fill="none" d="M1103.448 551.724h68.966v68.966h-68.966z"/><path fill="#99e4ff74" d="M1172.414 551.724h68.966v68.966h-68.966z"/><path fill="#99e4ff0a" d="M1379.31 551.724h68.966v68.966h-68.966z"/><path fill="none" d="M1448.276 551.724h68.966v68.966h-68.966z"/><path fill="#99e4ff33" d="M1586.207 551.724h68.966v68.966h-68.966z"/><path fill="none" d="M1793.103 551.724h68.966v68.966h-68.966zM1862.069 551.724h68.966v68.966h-68.966z"/><path fill="#99e4ff19" d="M1931.034 551.724H2000v68.966h-68.966z"/><path fill="none" d="M0 620.69h68.966v68.966H0zM68.966 620.69h68.966v68.966H68.966zM206.897 620.69h68.966v68.966h-68.966z"/><path fill="#99e4ffbe" d="M275.862 620.69h68.966v68.966h-68.966z"/><path fill="none" d="M344.828 620.69h68.966v68.966h-68.966z"/><path fill="none" d="M413.793 620.69h68.966v68.966h-68.966zM551.724 620.69h68.966v68.966h-68.966zM620.69 620.69h68.966v68.966H620.69zM758.621 620.69h68.966v68.966h-68.966z"/><path fill="none" d="M827.586 620.69h68.966v68.966h-68.966zM896.552 620.69h68.966v68.966h-68.966z"/><path fill="none" d="M965.517 620.69h68.966v68.966h-68.966zM1034.483 620.69h68.966v68.966h-68.966zM1172.414 620.69h68.966v68.966h-68.966z"/><path fill="#99e4ff10" d="M1241.379 620.69h68.966v68.966h-68.966z"/><path fill="none" d="M1379.31 620.69h68.966v68.966h-68.966z"/><path fill="#99e4ffb6" d="M1448.276 620.69h68.966v68.966h-68.966z"/><path fill="none" d="M1517.241 620.69h68.966v68.966h-68.966zM1586.207 620.69h68.966v68.966h-68.966z"/><path fill="#99e4ffcc" d="M1724.138 620.69h68.966v68.966h-68.966z"/><path fill="none" d="M1793.103 620.69h68.966v68.966h-68.966zM1931.034 620.69H2000v68.966h-68.966z"/><path fill="#99e4ff73" d="M68.966 689.655h68.966v68.966H68.966z"/><path fill="none" d="M137.931 689.655h68.966v68.966h-68.966z"/><path fill="#99e4ff1b" d="M206.897 689.655h68.966v68.966h-68.966z"/><path fill="none" d="M482.759 689.655h68.966v68.966h-68.966zM620.69 689.655h68.966v68.966H620.69zM827.586 689.655h68.966v68.966h-68.966zM896.552 689.655h68.966v68.966h-68.966z"/><path fill="#99e4ffef" d="M1034.483 689.655h68.966v68.966h-68.966z"/><path fill="none" d="M1103.448 689.655h68.966v68.966h-68.966z"/><path fill="#99e4ff4b" d="M1172.414 689.655h68.966v68.966h-68.966z"/><path fill="none" d="M1241.379 689.655h68.966v68.966h-68.966zM1310.345 689.655h68.966v68.966h-68.966zM1448.276 689.655h68.966v68.966h-68.966z"/><path fill="#99e4ff61" d="M1586.207 689.655h68.966v68.966h-68.966z"/><path fill="none" d="M1655.172 689.655h68.966v68.966h-68.966zM1724.138 689.655h68.966v68.966h-68.966z"/><path fill="none" d="M1793.103 689.655h68.966v68.966h-68.966zM1862.069 689.655h68.966v68.966h-68.966zM137.931 758.621h68.966v68.966h-68.966zM206.897 758.621h68.966v68.966h-68.966z"/><path fill="#99e4ff91" d="M275.862 758.621h68.966v68.966h-68.966z"/><path fill="#99e4fff2" d="M344.828 758.621h68.966v68.966h-68.966z"/><path fill="#99e4ff01" d="M413.793 758.621h68.966v68.966h-68.966z"/><path fill="#99e4ffe0" d="M620.69 758.621h68.966v68.966H620.69z"/><path fill="none" d="M689.655 758.621h68.966v68.966h-68.966zM758.621 758.621h68.966v68.966h-68.966z"/><path fill="#99e4ffa1" d="M896.552 758.621h68.966v68.966h-68.966z"/><path fill="#99e4ffbd" d="M965.517 758.621h68.966v68.966h-68.966z"/><path fill="none" d="M1034.483 758.621h68.966v68.966h-68.966z"/><path fill="none" d="M1103.448 758.621h68.966v68.966h-68.966zM1241.379 758.621h68.966v68.966h-68.966z"/><path fill="#99e4ff8e" d="M1310.345 758.621h68.966v68.966h-68.966z"/><path fill="none" d="M1379.31 758.621h68.966v68.966h-68.966zM1586.207 758.621h68.966v68.966h-68.966z"/><path fill="none" d="M1655.172 758.621h68.966v68.966h-68.966zM1724.138 758.621h68.966v68.966h-68.966z"/><path fill="none" d="M1793.103 758.621h68.966v68.966h-68.966zM1862.069 758.621h68.966v68.966h-68.966zM0 827.586h68.966v68.966H0zM68.966 827.586h68.966v68.966H68.966z"/><path fill="#99e4fff4" d="M137.931 827.586h68.966v68.966h-68.966z"/><path fill="#99e4ff80" d="M275.862 827.586h68.966v68.966h-68.966z"/><path fill="none" d="M344.828 827.586h68.966v68.966h-68.966z"/><path fill="#99e4ffcb" d="M413.793 827.586h68.966v68.966h-68.966z"/><path fill="none" d="M551.724 827.586h68.966v68.966h-68.966z"/><path fill="#99e4ffd0" d="M620.69 827.586h68.966v68.966H620.69z"/><path fill="none" d="M758.621 827.586h68.966v68.966h-68.966z"/><path fill="none" d="M827.586 827.586h68.966v68.966h-68.966z"/><path fill="#99e4ffa6" d="M896.552 827.586h68.966v68.966h-68.966z"/><path fill="#99e4ffba" d="M965.517 827.586h68.966v68.966h-68.966z"/><path fill="none" d="M1103.448 827.586h68.966v68.966h-68.966z"/><path fill="#99e4ff40" d="M1172.414 827.586h68.966v68.966h-68.966z"/><path fill="none" d="M1241.379 827.586h68.966v68.966h-68.966zM1310.345 827.586h68.966v68.966h-68.966z"/><path fill="none" d="M1379.31 827.586h68.966v68.966h-68.966zM1448.276 827.586h68.966v68.966h-68.966zM1586.207 827.586h68.966v68.966h-68.966z"/><path fill="none" d="M1655.172 827.586h68.966v68.966h-68.966zM1724.138 827.586h68.966v68.966h-68.966z"/><path fill="none" d="M1793.103 827.586h68.966v68.966h-68.966zM1862.069 827.586h68.966v68.966h-68.966z"/><path fill="#99e4ff5f" d="M1931.034 827.586H2000v68.966h-68.966z"/><path fill="none" d="M68.966 896.552h68.966v68.966H68.966z"/><path fill="#99e4ff22" d="M137.931 896.552h68.966v68.966h-68.966z"/><path fill="none" d="M206.897 896.552h68.966v68.966h-68.966zM413.793 896.552h68.966v68.966h-68.966zM482.759 896.552h68.966v68.966h-68.966z"/><path fill="none" d="M551.724 896.552h68.966v68.966h-68.966zM620.69 896.552h68.966v68.966H620.69z"/><path fill="none" d="M689.655 896.552h68.966v68.966h-68.966zM827.586 896.552h68.966v68.966h-68.966zM896.552 896.552h68.966v68.966h-68.966zM1172.414 896.552h68.966v68.966h-68.966zM1310.345 896.552h68.966v68.966h-68.966zM1448.276 896.552h68.966v68.966h-68.966z"/><path fill="none" d="M1517.241 896.552h68.966v68.966h-68.966zM1655.172 896.552h68.966v68.966h-68.966z"/><path fill="#99e4fffb" d="M1793.103 896.552h68.966v68.966h-68.966z"/><path fill="none" d="M1862.069 896.552h68.966v68.966h-68.966z"/><path fill="none" d="M1931.034 896.552H2000v68.966h-68.966zM0 965.517h68.966v68.966H0zM68.966 965.517h68.966v68.966H68.966z"/><path fill="#99e4ff3a" d="M206.897 965.517h68.966v68.966h-68.966z"/><path fill="none" d="M275.862 965.517h68.966v68.966h-68.966z"/><path fill="none" d="M344.828 965.517h68.966v68.966h-68.966z"/><path fill="#99e4ff8d" d="M413.793 965.517h68.966v68.966h-68.966z"/><path fill="#99e4ff3c" d="M620.69 965.517h68.966v68.966H620.69z"/><path fill="none" d="M689.655 965.517h68.966v68.966h-68.966z"/><path fill="#99e4ff62" d="M896.552 965.517h68.966v68.966h-68.966z"/><path fill="none" d="M965.517 965.517h68.966v68.966h-68.966z"/><path fill="#99e4ff41" d="M1034.483 965.517h68.966v68.966h-68.966z"/><path fill="#99e4ff8d" d="M1103.448 965.517h68.966v68.966h-68.966z"/><path fill="none" d="M1172.414 965.517h68.966v68.966h-68.966zM1310.345 965.517h68.966v68.966h-68.966z"/><path fill="none" d="M1379.31 965.517h68.966v68.966h-68.966zM1448.276 965.517h68.966v68.966h-68.966z"/><path fill="#99e4ff3b" d="M1517.241 965.517h68.966v68.966h-68.966z"/><path fill="#99e4ff9f" d="M1655.172 965.517h68.966v68.966h-68.966z"/><path fill="none" d="M1724.138 965.517h68.966v68.966h-68.966z"/><path fill="none" d="M1793.103 965.517h68.966v68.966h-68.966zM0 1034.483h68.966v68.966H0zM137.931 1034.483h68.966v68.966h-68.966zM206.897 1034.483h68.966v68.966h-68.966zM413.793 1034.483h68.966v68.966h-68.966zM482.759 1034.483h68.966v68.966h-68.966z"/><path fill="#99e4ff24" d="M620.69 1034.483h68.966v68.966H620.69z"/><path fill="none" d="M689.655 1034.483h68.966v68.966h-68.966zM758.621 1034.483h68.966v68.966h-68.966z"/><path fill="none" d="M827.586 1034.483h68.966v68.966h-68.966zM896.552 1034.483h68.966v68.966h-68.966z"/><path fill="none" d="M965.517 1034.483h68.966v68.966h-68.966zM1034.483 1034.483h68.966v68.966h-68.966z"/><path fill="none" d="M1103.448 1034.483h68.966v68.966h-68.966zM1241.379 1034.483h68.966v68.966h-68.966zM1310.345 1034.483h68.966v68.966h-68.966z"/><path fill="#99e4ff0c" d="M1379.31 1034.483h68.966v68.966h-68.966z"/><path fill="none" d="M1448.276 1034.483h68.966v68.966h-68.966z"/><path fill="#99e4ffd1" d="M1724.138 1034.483h68.966v68.966h-68.966z"/><path fill="#99e4ff4e" d="M1793.103 1034.483h68.966v68.966h-68.966z"/><path fill="none" d="M1862.069 1034.483h68.966v68.966h-68.966zM275.862 1103.448h68.966v68.966h-68.966zM413.793 1103.448h68.966v68.966h-68.966z"/><path fill="#99e4ff0a" d="M482.759 1103.448h68.966v68.966h-68.966z"/><path fill="none" d="M965.517 1103.448h68.966v68.966h-68.966zM1034.483 1103.448h68.966v68.966h-68.966zM1448.276 1103.448h68.966v68.966h-68.966z"/><path fill="#99e4fff2" d="M1517.241 1103.448h68.966v68.966h-68.966z"/><path fill="none" d="M1655.172 1103.448h68.966v68.966h-68.966zM1724.138 1103.448h68.966v68.966h-68.966z"/><path fill="none" d="M1793.103 1103.448h68.966v68.966h-68.966zM1862.069 1103.448h68.966v68.966h-68.966z"/><path fill="none" d="M1931.034 1103.448H2000v68.966h-68.966z"/><path fill="#99e4ffd9" d="M68.966 1172.414h68.966v68.966H68.966z"/><path fill="#99e4ffbc" d="M137.931 1172.414h68.966v68.966h-68.966z"/><path fill="#99e4ff02" d="M206.897 1172.414h68.966v68.966h-68.966z"/><path fill="#99e4ffb0" d="M275.862 1172.414h68.966v68.966h-68.966z"/><path fill="none" d="M344.828 1172.414h68.966v68.966h-68.966zM482.759 1172.414h68.966v68.966h-68.966z"/><path fill="none" d="M551.724 1172.414h68.966v68.966h-68.966z"/><path fill="#99e4ff06" d="M758.621 1172.414h68.966v68.966h-68.966z"/><path fill="none" d="M896.552 1172.414h68.966v68.966h-68.966z"/><path fill="#99e4ffc9" d="M965.517 1172.414h68.966v68.966h-68.966z"/><path fill="#99e4fff5" d="M1103.448 1172.414h68.966v68.966h-68.966z"/><path fill="#99e4ffef" d="M1172.414 1172.414h68.966v68.966h-68.966z"/><path fill="none" d="M1241.379 1172.414h68.966v68.966h-68.966zM1379.31 1172.414h68.966v68.966h-68.966z"/><path fill="#99e4ffbf" d="M1448.276 1172.414h68.966v68.966h-68.966z"/><path fill="none" d="M1586.207 1172.414h68.966v68.966h-68.966z"/><path fill="none" d="M1655.172 1172.414h68.966v68.966h-68.966z"/><path fill="#99e4ff70" d="M1931.034 1172.414H2000v68.966h-68.966z"/><path fill="#99e4ff36" d="M0 1241.379h68.966v68.966H0z"/><path fill="none" d="M68.966 1241.379h68.966v68.966H68.966z"/><path fill="#99e4ff64" d="M137.931 1241.379h68.966v68.966h-68.966z"/><path fill="none" d="M206.897 1241.379h68.966v68.966h-68.966z"/><path fill="none" d="M275.862 1241.379h68.966v68.966h-68.966z"/><path fill="#99e4ffd8" d="M344.828 1241.379h68.966v68.966h-68.966z"/><path fill="none" d="M482.759 1241.379h68.966v68.966h-68.966z"/><path fill="none" d="M551.724 1241.379h68.966v68.966h-68.966zM827.586 1241.379h68.966v68.966h-68.966zM965.517 1241.379h68.966v68.966h-68.966z"/><path fill="#99e4ffbe" d="M1034.483 1241.379h68.966v68.966h-68.966z"/><path fill="none" d="M1172.414 1241.379h68.966v68.966h-68.966z"/><path fill="#99e4ff08" d="M1241.379 1241.379h68.966v68.966h-68.966z"/><path fill="none" d="M1310.345 1241.379h68.966v68.966h-68.966z"/><path fill="#99e4ff33" d="M1379.31 1241.379h68.966v68.966h-68.966z"/><path fill="none" d="M1448.276 1241.379h68.966v68.966h-68.966z"/><path fill="none" d="M1517.241 1241.379h68.966v68.966h-68.966zM1586.207 1241.379h68.966v68.966h-68.966z"/><path fill="none" d="M1655.172 1241.379h68.966v68.966h-68.966zM1724.138 1241.379h68.966v68.966h-68.966zM68.966 1310.345h68.966v68.966H68.966z"/><path fill="#99e4ff35" d="M275.862 1310.345h68.966v68.966h-68.966z"/><path fill="#99e4ff17" d="M344.828 1310.345h68.966v68.966h-68.966z"/><path fill="#99e4ff7e" d="M413.793 1310.345h68.966v68.966h-68.966z"/><path fill="none" d="M482.759 1310.345h68.966v68.966h-68.966zM689.655 1310.345h68.966v68.966h-68.966zM758.621 1310.345h68.966v68.966h-68.966z"/><path fill="none" d="M827.586 1310.345h68.966v68.966h-68.966z"/><path fill="#99e4ffde" d="M896.552 1310.345h68.966v68.966h-68.966z"/><path fill="#99e4ff96" d="M965.517 1310.345h68.966v68.966h-68.966z"/><path fill="none" d="M1034.483 1310.345h68.966v68.966h-68.966zM1379.31 1310.345h68.966v68.966h-68.966z"/><path fill="#99e4ff01" d="M1448.276 1310.345h68.966v68.966h-68.966z"/><path fill="none" d="M1517.241 1310.345h68.966v68.966h-68.966zM1586.207 1310.345h68.966v68.966h-68.966z"/><path fill="none" d="M1655.172 1310.345h68.966v68.966h-68.966z"/><path fill="#99e4ff1a" d="M1862.069 1310.345h68.966v68.966h-68.966z"/><path fill="none" d="M1931.034 1310.345H2000v68.966h-68.966zM0 1379.31h68.966v68.966H0zM137.931 1379.31h68.966v68.966h-68.966zM206.897 1379.31h68.966v68.966h-68.966z"/><path fill="none" d="M275.862 1379.31h68.966v68.966h-68.966z"/><path fill="#99e4ff78" d="M344.828 1379.31h68.966v68.966h-68.966z"/><path fill="#99e4ffdb" d="M413.793 1379.31h68.966v68.966h-68.966z"/><path fill="none" d="M482.759 1379.31h68.966v68.966h-68.966z"/><path fill="none" d="M551.724 1379.31h68.966v68.966h-68.966zM689.655 1379.31h68.966v68.966h-68.966zM758.621 1379.31h68.966v68.966h-68.966z"/><path fill="none" d="M827.586 1379.31h68.966v68.966h-68.966zM1034.483 1379.31h68.966v68.966h-68.966z"/><path fill="none" d="M1103.448 1379.31h68.966v68.966h-68.966zM1172.414 1379.31h68.966v68.966h-68.966z"/><path fill="#99e4ffb5" d="M1241.379 1379.31h68.966v68.966h-68.966z"/><path fill="none" d="M1310.345 1379.31h68.966v68.966h-68.966zM1448.276 1379.31h68.966v68.966h-68.966z"/><path fill="none" d="M1517.241 1379.31h68.966v68.966h-68.966zM1586.207 1379.31h68.966v68.966h-68.966zM1724.138 1379.31h68.966v68.966h-68.966z"/><path fill="#99e4ff22" d="M1862.069 1379.31h68.966v68.966h-68.966z"/><path fill="none" d="M1931.034 1379.31H2000v68.966h-68.966z"/></g><defs><radialGradient id="a"><stop offset="44%" stop-color="#fff" stop-opacity="0"/><stop offset="100%" stop-color="#fff" stop-opacity=".56"/></radialGradient></defs></svg>